<svg id="AEON_-_LIVE_UP_Logo_w" data-name="AEON - LIVE UP Logo w" xmlns="http://www.w3.org/2000/svg" width="28.308" height="76.672" viewBox="0 0 28.308 76.672">
  <path id="Path_6806" data-name="Path 6806" d="M59.43,217.009h0a4.109,4.109,0,0,1-.3,1.566,3.76,3.76,0,0,1-.876,1.283,3.938,3.938,0,0,1-1.288.822,4.212,4.212,0,0,1-1.544.288,4.029,4.029,0,0,1-2.832-1.157,3.905,3.905,0,0,1-.008-5.585,3.991,3.991,0,0,1,1.3-.863,4.152,4.152,0,0,1,4.4.829,3.915,3.915,0,0,1,1.15,2.817m.077-4.107h0a5.814,5.814,0,0,0-1.882-1.27,5.71,5.71,0,0,0-2.215-.442,5.909,5.909,0,0,0-2.257.444,5.631,5.631,0,0,0-1.879,1.271,5.709,5.709,0,0,0-1.228,1.882,6.048,6.048,0,0,0,.007,4.474,5.758,5.758,0,0,0,1.234,1.879,5.692,5.692,0,0,0,1.879,1.263,5.91,5.91,0,0,0,2.26.439,5.673,5.673,0,0,0,2.212-.447,5.848,5.848,0,0,0,3.577-5.389,5.725,5.725,0,0,0-.444-2.217A5.869,5.869,0,0,0,59.5,212.9" transform="translate(-41.275 -175.67)" fill="#fff"/>
  <path id="Path_6807" data-name="Path 6807" d="M62.3,303.581l-.017-10.66-1.719,0,.01,6.992L51.33,292.19l.017,10.724,1.719,0-.01-7.055Z" transform="translate(-42.697 -243.047)" fill="#fff"/>
  <g id="Group_2893" data-name="Group 2893" transform="translate(8.345 22.576)">
    <rect id="Rectangle_557" data-name="Rectangle 557" width="11.615" height="1.727" fill="#fff"/>
    <rect id="Rectangle_558" data-name="Rectangle 558" width="11.615" height="1.727" transform="translate(0 4.062)" fill="#fff"/>
    <rect id="Rectangle_559" data-name="Rectangle 559" width="11.615" height="1.727" transform="translate(0 8.124)" fill="#fff"/>
  </g>
  <path id="Path_6808" data-name="Path 6808" d="M57.545,55.139l-4,0h-.052l2.124-4.253,1.932,4.248Zm1.821,3.983,1.87,0L55.628,47.35,49.62,59.132l1.875,0,1.15-2.259h5.691l1.028,2.25Z" transform="translate(-41.275 -39.386)" fill="#fff"/>
  <path id="Path_6809" data-name="Path 6809" d="M1.981,66.518H26.326V1.981H1.981ZM0,0H28.308V68.5H0Z" fill="#fff"/>
  <path id="Path_6810" data-name="Path 6810" d="M1.312,429.024H2.883v1.11H0V425.09H1.312Z" transform="translate(0 -353.595)" fill="#fff"/>
  <rect id="Rectangle_560" data-name="Rectangle 560" width="1.312" height="5.044" transform="translate(3.979 71.364)" fill="#fff"/>
  <path id="Path_6811" data-name="Path 6811" d="M40.024,428.154l1.224-3.064h1.425l-2.154,5.044H39.5L37.38,425.09h1.426Z" transform="translate(-31.093 -353.595)" fill="#fff"/>
  <path id="Path_6812" data-name="Path 6812" d="M76.08,426.2v.844h1.478v1.11H76.08v.87h1.559v1.11H74.77V425.09h2.869v1.11Z" transform="translate(-62.195 -353.595)" fill="#fff"/>
  <path id="Path_6813" data-name="Path 6813" d="M114.81,425.09v2.836a4.313,4.313,0,0,1-.076.95,1.619,1.619,0,0,1-.452.829,1.847,1.847,0,0,1-.774.436,3.261,3.261,0,0,1-1.8,0,1.865,1.865,0,0,1-.774-.436,1.619,1.619,0,0,1-.452-.829,4.312,4.312,0,0,1-.076-.95V425.09h1.312v2.656a2.363,2.363,0,0,0,.13.932.879.879,0,0,0,1.522,0,2.364,2.364,0,0,0,.128-.932V425.09h1.312Z" transform="translate(-91.84 -353.595)" fill="#fff"/>
  <path id="Path_6814" data-name="Path 6814" d="M146.774,427.4h.22a1.706,1.706,0,0,0,.649-.077.514.514,0,0,0,.294-.538.553.553,0,0,0-.281-.56,1.652,1.652,0,0,0-.663-.082h-.22Zm-1.312-2.314h2.006a2.036,2.036,0,0,1,1.324.4,1.558,1.558,0,0,1,.51,1.263,1.706,1.706,0,0,1-.464,1.3,1.893,1.893,0,0,1-1.322.41h-.743v1.672H145.46V425.09Z" transform="translate(-120.995 -353.595)" fill="#fff"/>
</svg>
