<svg xmlns="http://www.w3.org/2000/svg" width="29.242" height="25.245" viewBox="0 0 29.242 25.245">
  <path id="Path_73394" data-name="Path 73394" d="M83.867,107.232c0,.7.006,1.37,0,2.035a.875.875,0,1,1-1.747.018c-.013-.571,0-1.142,0-1.713v-.324H63.024v.531c0,.5.009,1.008,0,1.513a.874.874,0,1,1-1.747,0c-.01-.674,0-1.348,0-2.057H60c-.371,0-.742,0-1.113,0a.873.873,0,0,1-.939-.949c0-1.988-.009-3.977,0-5.966a4.318,4.318,0,0,1,3.114-4.175c.062-.019.122-.043.2-.072v-.343c0-2.559,0-5.118,0-7.679a3.008,3.008,0,0,1,2.261-2.992,3.453,3.453,0,0,1,.846-.095q8.191-.009,16.384,0a3.006,3.006,0,0,1,3.1,3.1c.007,2.55,0,5.1,0,7.65v.357c.082.031.159.064.236.088a4.318,4.318,0,0,1,3.078,4.088c.017,2.017.007,4.035,0,6.051a.869.869,0,0,1-.944.942c-.779,0-1.556,0-2.374,0Zm1.558-1.756c.008-.1.017-.162.017-.227,0-1.618,0-3.235,0-4.853a2.768,2.768,0,0,0-.082-.706A2.581,2.581,0,0,0,82.732,97.7q-10.163-.005-20.327.01a2.989,2.989,0,0,0-1.236.273,2.535,2.535,0,0,0-1.477,2.5q0,2.342,0,4.682c0,.1.01.2.016.314H85.423Zm-3.311-9.512v-.351c0-2.483-.018-4.966.01-7.449a1.365,1.365,0,0,0-1.481-1.478q-8.076.021-16.153,0a1.364,1.364,0,0,0-1.477,1.482c.03,2.483.01,4.965.01,7.449v.328h2.869c0-.427,0-.844,0-1.26a4.142,4.142,0,0,1,4.224-4.231c1.636-.009,3.273,0,4.909,0a3.98,3.98,0,0,1,1.772.37,4.089,4.089,0,0,1,2.446,3.81c.013.434,0,.868,0,1.314.11.007.184.016.258.016h2.611Zm-4.622-.015c0-.441,0-.848,0-1.256a2.378,2.378,0,0,0-2.5-2.486c-.646,0-1.293,0-1.939,0-1.075,0-2.149-.021-3.221.022a2.222,2.222,0,0,0-1.871,1.18,5.078,5.078,0,0,0-.319,2.542h9.849Z" transform="translate(-57.947 -84.959)" fill="#074075"/>
</svg>
