<svg xmlns="http://www.w3.org/2000/svg" width="21.241" height="21.241" viewBox="0 0 21.241 21.241">
  <g id="vuesax_bold_call" data-name="vuesax/bold/call" transform="translate(0 0)">
    <g id="call" transform="translate(0 0)">
      <path id="Vector" d="M8.01,11.462,6.372,13.1a.889.889,0,0,1-1.248.009c-.1-.1-.195-.186-.292-.283A25.148,25.148,0,0,1,2.363,9.93,15.779,15.779,0,0,1,.628,6.912,7.6,7.6,0,0,1,0,4.018,4.579,4.579,0,0,1,.319,2.31,4.074,4.074,0,0,1,1.336.832,2.593,2.593,0,0,1,3.177,0a1.663,1.663,0,0,1,.717.159,1.443,1.443,0,0,1,.593.5L6.541,3.549a3.029,3.029,0,0,1,.354.62,1.4,1.4,0,0,1,.124.54,1.2,1.2,0,0,1-.186.628,3.01,3.01,0,0,1-.5.628l-.673.7a.474.474,0,0,0-.142.354.8.8,0,0,0,.027.2c.027.071.053.124.071.177a7.344,7.344,0,0,0,.823,1.133c.4.46.823.929,1.283,1.4.089.089.186.177.274.266A.887.887,0,0,1,8.01,11.462Z" transform="translate(1.77 1.77)"/>
      <path id="Vector-2" data-name="Vector" d="M10.948,3.8a2.248,2.248,0,0,1-.133.752,2.162,2.162,0,0,1-.089.212,3.652,3.652,0,0,1-.6.9A3.99,3.99,0,0,1,8.674,6.709c-.009,0-.018.009-.027.009a4.471,4.471,0,0,1-1.7.327A7.376,7.376,0,0,1,4.062,6.4,15.545,15.545,0,0,1,1.018,4.647C.673,4.39.327,4.133,0,3.859L2.894.965a4.973,4.973,0,0,0,.655.425c.044.018.1.044.159.071A.611.611,0,0,0,3.93,1.5a.487.487,0,0,0,.363-.15L4.965.681A2.716,2.716,0,0,1,5.6.186,1.179,1.179,0,0,1,6.231,0a1.412,1.412,0,0,1,.54.115A3.423,3.423,0,0,1,7.39.46l2.93,2.08a1.343,1.343,0,0,1,.487.566A1.816,1.816,0,0,1,10.948,3.8Z" transform="translate(8.497 12.426)"/>
      <path id="Vector-3" data-name="Vector" d="M0,0H21.241V21.241H0Z" transform="translate(21.241 21.241) rotate(180)" fill="none" opacity="0"/>
    </g>
  </g>
</svg>
