<svg width="456" height="127" viewBox="0 0 456 127" fill="none" xmlns="http://www.w3.org/2000/svg">
<g clip-path="url(#clip0_375_10494)">
<path d="M6.85 4.57996H16.88C30.2 4.57996 38.14 13.79 38.14 29.21C38.14 44.63 30.2 53.84 16.88 53.84H6.85V4.57996ZM16.88 0.959961H0V57.47H16.88C33.79 57.47 45.15 46.11 45.15 29.21C45.15 12.31 33.79 0.959961 16.88 0.959961Z" fill="#333333"/>
<path d="M71.1195 0.959961H64.2695V57.47H71.1195V0.959961Z" fill="#333333"/>
<path d="M144.28 4.57996H162.4V57.47H169.24V4.57996H187.35V0.959961H144.28V4.57996Z" fill="#333333"/>
<path d="M240.22 16.24C240.22 6.52996 233.19 0.959961 220.93 0.959961H204.84V57.47H211.68V4.57996H220.92C228.94 4.57996 233.36 8.72996 233.36 16.24C233.36 23.75 228.94 27.89 220.91 27.89H213.8V30.39L236.7 57.48H245.37L223.13 31.37C234.01 30.75 240.19 25.32 240.19 16.24" fill="#333333"/>
<path d="M272.83 0.959961H265.98V57.47H272.83V0.959961Z" fill="#333333"/>
<path d="M321.63 54.81C308.72 54.81 300.05 44.52 300.05 29.22C300.05 13.92 308.75 3.63001 321.71 3.63001C327.22 3.63001 333.04 5.43001 336.89 8.32001L338.52 9.54001V4.72001L338.07 4.42001C333.85 1.61001 327.89 0.0100098 321.71 0.0100098C305.1 0.0100098 293.05 12.29 293.05 29.22C293.05 46.15 304.9 58.44 321.63 58.44C328.33 58.44 334.52 56.73 339.04 53.61L339.48 53.31V48.52L337.86 49.72C333.68 52.8 327.32 54.81 321.63 54.81Z" fill="#333333"/>
<path d="M350.99 0.959961V4.57996H369.11V57.47H375.95V4.57996H394.05V0.959961H350.99Z" fill="#333333"/>
<path d="M435.94 22.0801C434.45 22.0801 432.99 22.2701 431.65 22.5001L432.57 4.79005H452.65V1.18005H426.16L424.86 27.3001H427.05L427.38 27.2501C429.04 26.6701 432.7 25.7001 435.94 25.7001C444.15 25.7001 448.85 30.8201 448.85 39.7401C448.85 44.3201 447.59 54.9901 435.94 54.9901C432.61 54.9901 428.86 53.9801 425.36 52.1301L423.87 51.3601V55.7501L424.44 56.0301C428.07 57.7701 431.83 58.6201 435.94 58.6201C448.13 58.6201 455.7 51.3901 455.7 39.7401C455.7 29.0001 447.95 22.0701 435.94 22.0701" fill="#333333"/>
<path d="M126.57 34.54C125.35 32.59 123.75 30.99 121.77 29.75C119.79 28.51 117.62 27.47 115.28 26.62C112.94 25.78 110.76 24.88 108.74 23.93C106.72 22.99 105.04 21.83 103.7 20.46C102.35 19.09 101.68 17.27 101.68 14.99C101.68 11.54 102.72 8.92004 104.8 7.13004C106.88 5.34004 109.75 4.44004 113.4 4.44004C113.7 4.44004 113.96 4.44004 114.24 4.46004C117.9 4.61004 121.3 5.51004 124.25 6.96004V3.44004C123.55 3.05004 122.8 2.69004 121.95 2.39004C121.05 2.06004 119.92 1.74004 118.54 1.41004C117.16 1.08004 115.61 0.920044 113.88 0.920044C111.44 0.920044 109.12 1.17004 106.91 1.66004C104.7 2.15004 102.76 3.00004 101.09 4.20004C99.4203 5.40004 98.0903 7.04004 97.1003 9.09004C96.1103 11.14 95.6104 13.77 95.6104 16.97C95.6104 20.17 96.2704 22.6 97.5804 24.46C98.8904 26.32 100.54 27.85 102.53 29.06C104.52 30.27 106.65 31.28 108.92 32.09C111.19 32.9 113.29 33.8 115.21 34.78C117.13 35.76 118.68 36.97 119.87 38.4C121.05 39.83 121.58 41.79 121.45 44.27C121.19 47.99 119.85 50.62 117.42 52.15C114.98 53.68 111.91 54.45 108.19 54.45L106.58 54.48C102.8 54.48 99.2403 53.77 96.1003 52.54V56.26C96.8803 56.59 97.7004 56.89 98.5804 57.12C99.6704 57.44 100.95 57.71 102.42 57.93C103.89 58.15 105.56 58.26 107.42 58.26C109.98 58.26 112.48 58.02 114.92 57.53C117.35 57.04 119.52 56.2 121.41 54.99C123.3 53.79 124.85 52.14 126.07 50.06C127.29 47.98 127.99 45.34 128.18 42.15C128.31 39.02 127.76 36.48 126.55 34.53L126.57 34.54Z" fill="#333333"/>
<path d="M376.887 95.768L370.376 114.983L363.834 95.768H361.642L355.004 114.888L348.589 95.768H346.175L353.67 118H356.116L362.659 99.0393L369.169 118H371.647L379.142 95.768H376.887ZM392.953 118.191C399.622 118.191 404.609 113.395 404.609 106.884C404.609 100.373 399.622 95.5774 392.953 95.5774C386.22 95.5774 381.265 100.405 381.265 106.884C381.265 113.363 386.22 118.191 392.953 118.191ZM392.953 116.094C387.585 116.094 383.583 112.188 383.583 106.884C383.583 101.58 387.585 97.6736 392.953 97.6736C398.288 97.6736 402.258 101.58 402.258 106.884C402.258 112.188 398.288 116.094 392.953 116.094ZM427.63 118L422.199 110.378C425.439 109.33 427.281 106.884 427.281 103.39C427.281 98.6264 423.851 95.768 418.198 95.768H409.876V118H412.227V110.949H418.198C418.833 110.949 419.405 110.918 419.976 110.854L425.058 118H427.63ZM418.134 108.948H412.227V97.8006H418.134C422.58 97.8006 424.931 99.8333 424.931 103.39C424.931 106.884 422.58 108.948 418.134 108.948ZM448.803 118H451.598L441.308 105.836L450.931 95.768H448.232L435.178 109.202V95.768H432.828V118H435.178V112.156L439.72 107.551L448.803 118Z" fill="#333333"/>
</g>
<defs>
<clipPath id="clip0_375_10494">
<rect width="455.7" height="126.44" fill="white"/>
</clipPath>
</defs>
</svg>
