<svg id="Group_3251" data-name="Group 3251" xmlns="http://www.w3.org/2000/svg" xmlns:xlink="http://www.w3.org/1999/xlink" width="455.696" height="116.487" viewBox="0 0 455.696 116.487">
  <defs>
    <clipPath id="clip-path">
      <rect id="Rectangle_1672" data-name="Rectangle 1672" width="455.696" height="116.487" fill="#fff"/>
    </clipPath>
  </defs>
  <g id="Group_3250" data-name="Group 3250" clip-path="url(#clip-path)">
    <path id="Path_73419" data-name="Path 73419" d="M6.845,4.581l10.034,0c13.318,0,21.262,9.2,21.262,24.63S30.2,53.842,16.879,53.842H6.845ZM16.879.961H0V57.472H16.879c16.908,0,28.266-11.358,28.266-28.259S33.789.961,16.879.961" fill="#fff"/>
    <rect id="Rectangle_1669" data-name="Rectangle 1669" width="6.845" height="56.511" transform="translate(64.274 0.963)" fill="#fff"/>
    <path id="Path_73420" data-name="Path 73420" d="M144.284,4.582H162.4V57.473h6.843l0-52.891h18.1V.962H144.284Z" fill="#fff"/>
    <path id="Path_73421" data-name="Path 73421" d="M240.222,16.238c0-9.712-7.034-15.276-19.289-15.276H204.848V57.473h6.843l0-52.891h9.24c8.024,0,12.444,4.147,12.444,11.656s-4.42,11.646-12.446,11.646h-7.106v2.5l22.9,27.089H245.4l-22.24-26.107c10.876-.616,17.061-6.052,17.061-15.128" fill="#fff"/>
    <rect id="Rectangle_1670" data-name="Rectangle 1670" width="6.845" height="56.511" transform="translate(265.984 0.963)" fill="#fff"/>
    <path id="Path_73422" data-name="Path 73422" d="M321.633,54.806c-12.911,0-21.58-10.287-21.58-25.593s8.7-25.591,21.659-25.591a26.431,26.431,0,0,1,15.183,4.691l1.627,1.221V4.711l-.451-.3C333.856,1.607,327.893,0,321.712,0c-16.606,0-28.663,12.281-28.663,29.213s11.846,29.223,28.584,29.223c6.7,0,12.887-1.715,17.41-4.831l.441-.3v-4.79l-1.622,1.2a29.033,29.033,0,0,1-16.229,5.088" fill="#fff"/>
    <path id="Path_73423" data-name="Path 73423" d="M350.993.963v3.62h18.114V57.474h6.843l0-52.891h18.1V.963Z" fill="#fff"/>
    <path id="Path_73424" data-name="Path 73424" d="M435.94,22.079a24.746,24.746,0,0,0-4.292.425L432.569,4.8h20.084V1.179H426.16l-1.3,26.125h2.185l.332-.049a29.412,29.412,0,0,1,8.562-1.548c8.21,0,12.914,5.116,12.914,14.04,0,4.579-1.258,15.248-12.914,15.248a23.331,23.331,0,0,1-10.583-2.856l-1.488-.773v4.393l.575.278a25.984,25.984,0,0,0,11.5,2.586c12.186,0,19.756-7.226,19.756-18.876,0-10.737-7.754-17.668-19.756-17.668" fill="#fff"/>
    <path id="Path_73425" data-name="Path 73425" d="M126.573,34.538a14.785,14.785,0,0,0-4.8-4.786,34.423,34.423,0,0,0-6.486-3.126q-3.51-1.267-6.536-2.685a17.224,17.224,0,0,1-5.044-3.468A7.454,7.454,0,0,1,101.685,15q0-5.175,3.121-7.863t8.6-2.685c.3,0,.557.007.843.02l0,0a25.132,25.132,0,0,1,10.015,2.5V3.456a15.554,15.554,0,0,0-2.3-1.052,31.457,31.457,0,0,0-3.412-.976A20.294,20.294,0,0,0,113.89.939a32.158,32.158,0,0,0-6.968.735,15.473,15.473,0,0,0-5.815,2.544A12.735,12.735,0,0,0,97.12,9.11a18.106,18.106,0,0,0-1.491,7.876A12.716,12.716,0,0,0,97.6,24.471a16.422,16.422,0,0,0,4.948,4.6A34.918,34.918,0,0,0,108.94,32.1a54.252,54.252,0,0,1,6.293,2.69,14.469,14.469,0,0,1,4.663,3.621,8.243,8.243,0,0,1,1.584,5.87q-.384,5.58-4.034,7.879a17.06,17.06,0,0,1-9.228,2.3l-1.609.027a28.787,28.787,0,0,1-10.484-1.944v3.724a18.064,18.064,0,0,0,2.483.86,30.114,30.114,0,0,0,3.845.809,33.612,33.612,0,0,0,5,.334,37.99,37.99,0,0,0,7.5-.734A18.817,18.817,0,0,0,121.433,55a14.225,14.225,0,0,0,4.66-4.932,17.632,17.632,0,0,0,2.114-7.91,13.17,13.17,0,0,0-1.634-7.619" fill="#fff"/>
    <path id="Path_73426" data-name="Path 73426" d="M200.726,116.213l-5.186-8.59c-.6.053-1.082.078-1.455.078h-6.641v8.512h-3.582V88.882h10.223q4.962,0,7.667,2.4a8.635,8.635,0,0,1,2.705,6.813,10.023,10.023,0,0,1-1.474,5.584,8.287,8.287,0,0,1-4.234,3.279l6.081,9.254ZM194.085,104.3a7.669,7.669,0,0,0,5.149-1.542,5.672,5.672,0,0,0,1.79-4.549,5.456,5.456,0,0,0-1.79-4.431,7.811,7.811,0,0,0-5.149-1.5h-6.641V104.3Z" fill="#fff"/>
    <path id="Path_73427" data-name="Path 73427" d="M214.567,88.882H232.7v3.4h-14.55v8.434H231.17v3.4H218.149v8.707h15v3.4h-18.58Z" fill="#fff"/>
    <path id="Path_73428" data-name="Path 73428" d="M254.134,92.767a12.29,12.29,0,0,0-3.6-.6,6.415,6.415,0,0,0-3.637.917,2.881,2.881,0,0,0-1.363,2.518,3.4,3.4,0,0,0,.822,2.362A5.792,5.792,0,0,0,248.37,99.4q1.194.526,3.321,1.229a36.707,36.707,0,0,1,4.291,1.64,7.527,7.527,0,0,1,2.8,2.323,6.644,6.644,0,0,1,1.156,4.08,7.051,7.051,0,0,1-1.212,4.1,7.824,7.824,0,0,1-3.4,2.713,12.391,12.391,0,0,1-5.018.957,14.032,14.032,0,0,1-5.6-1.172,15.1,15.1,0,0,1-4.7-3.123l1.605-3.241a13.423,13.423,0,0,0,4.2,2.948,11.13,11.13,0,0,0,4.533,1.035,7,7,0,0,0,4.122-1.074,3.386,3.386,0,0,0,1.512-2.909,3.488,3.488,0,0,0-.822-2.382,5.813,5.813,0,0,0-2.07-1.484,34.5,34.5,0,0,0-3.377-1.21,33.5,33.5,0,0,1-4.253-1.6,7.391,7.391,0,0,1-2.78-2.3,6.55,6.55,0,0,1-1.138-4.021,6.644,6.644,0,0,1,1.157-3.866,7.347,7.347,0,0,1,3.247-2.577,12.2,12.2,0,0,1,4.849-.9,15.55,15.55,0,0,1,8.618,2.655l-1.492,3.357a14.714,14.714,0,0,0-3.787-1.815" fill="#fff"/>
    <rect id="Rectangle_1671" data-name="Rectangle 1671" width="3.582" height="27.331" transform="translate(269.375 88.883)" fill="#fff"/>
    <path id="Path_73429" data-name="Path 73429" d="M301.667,90.659a12.763,12.763,0,0,1,4.831,4.9,14.735,14.735,0,0,1-.018,13.978,12.867,12.867,0,0,1-4.869,4.9,13.69,13.69,0,0,1-6.94,1.777H284.15V88.883h10.633a13.514,13.514,0,0,1,6.884,1.776m-1.866,20.83a9.551,9.551,0,0,0,3.508-3.67,11.284,11.284,0,0,0-.019-10.5,9.733,9.733,0,0,0-3.563-3.69,9.609,9.609,0,0,0-5.019-1.347h-6.976v20.538h7.126a9.437,9.437,0,0,0,4.943-1.328" fill="#fff"/>
    <path id="Path_73430" data-name="Path 73430" d="M317.093,88.882h18.133v3.4H320.675v8.434H333.7v3.4H320.675v8.707h15v3.4h-18.58Z" fill="#fff"/>
    <path id="Path_73431" data-name="Path 73431" d="M363.767,88.882h3.545v27.331h-3.619L348.769,95.051v21.162h-3.582V88.882h3.619l14.961,21.2Z" fill="#fff"/>
    <path id="Path_73432" data-name="Path 73432" d="M393.987,92.884a9.683,9.683,0,0,0-9.141.488,10.2,10.2,0,0,0-3.656,3.807,11.052,11.052,0,0,0,0,10.561,10.157,10.157,0,0,0,3.656,3.827,9.589,9.589,0,0,0,5.075,1.4,9.83,9.83,0,0,0,4.029-.878,11.625,11.625,0,0,0,3.507-2.4l2.164,2.46a14.513,14.513,0,0,1-4.589,3.181,13.163,13.163,0,0,1-12.126-.7,13.411,13.411,0,0,1-4.887-5.057,14.224,14.224,0,0,1-1.791-7.067,13.924,13.924,0,0,1,1.81-7.008,13.466,13.466,0,0,1,11.845-6.852,13.5,13.5,0,0,1,5.28,1.073,13.047,13.047,0,0,1,4.421,3.026l-2.127,2.695a10.781,10.781,0,0,0-3.47-2.558" fill="#fff"/>
    <path id="Path_73433" data-name="Path 73433" d="M408.351,88.882h18.133v3.4H411.933v8.434h13.022v3.4H411.933v8.707h15v3.4h-18.58Z" fill="#fff"/>
    <path id="Path_73434" data-name="Path 73434" d="M447.918,92.767a12.29,12.29,0,0,0-3.6-.6,6.415,6.415,0,0,0-3.637.917,2.881,2.881,0,0,0-1.363,2.518,3.4,3.4,0,0,0,.822,2.362,5.792,5.792,0,0,0,2.014,1.446q1.194.526,3.321,1.229a36.707,36.707,0,0,1,4.291,1.64,7.527,7.527,0,0,1,2.8,2.323,6.644,6.644,0,0,1,1.156,4.08,7.051,7.051,0,0,1-1.212,4.1,7.824,7.824,0,0,1-3.4,2.713,12.391,12.391,0,0,1-5.018.957,14.032,14.032,0,0,1-5.6-1.172,15.093,15.093,0,0,1-4.7-3.123l1.6-3.241a13.446,13.446,0,0,0,4.2,2.948,11.13,11.13,0,0,0,4.533,1.035,7,7,0,0,0,4.122-1.074,3.386,3.386,0,0,0,1.512-2.909,3.488,3.488,0,0,0-.822-2.382,5.813,5.813,0,0,0-2.07-1.484,34.5,34.5,0,0,0-3.377-1.21,33.5,33.5,0,0,1-4.253-1.6,7.388,7.388,0,0,1-2.779-2.3,6.543,6.543,0,0,1-1.139-4.021,6.651,6.651,0,0,1,1.157-3.866,7.358,7.358,0,0,1,3.247-2.577,12.2,12.2,0,0,1,4.849-.9,15.55,15.55,0,0,1,8.618,2.655L451.7,94.582a14.714,14.714,0,0,0-3.787-1.815" fill="#fff"/>
  </g>
</svg>
