<svg id="vuesax_bold_sms" data-name="vuesax/bold/sms" xmlns="http://www.w3.org/2000/svg" width="21.241" height="21.241" viewBox="0 0 21.241 21.241">
  <g id="sms" transform="translate(0 0)">
    <path id="Vector" d="M0,0H21.241V21.241H0Z" fill="none" opacity="0"/>
    <path id="Vector-2" data-name="Vector" d="M13.276,0H4.425C1.77,0,0,1.328,0,4.425v6.2c0,3.1,1.77,4.425,4.425,4.425h8.851c2.655,0,4.425-1.328,4.425-4.425v-6.2C17.7,1.328,15.931,0,13.276,0Zm.416,5.39L10.922,7.6a3.417,3.417,0,0,1-4.142,0L4.009,5.39A.681.681,0,0,1,3.9,4.452a.662.662,0,0,1,.929-.106L7.6,6.558a2.112,2.112,0,0,0,2.487,0l2.77-2.213a.653.653,0,0,1,.929.106A.671.671,0,0,1,13.692,5.39Z" transform="translate(1.77 3.098)"/>
  </g>
</svg>
