<svg id="Group_3048" data-name="Group 3048" xmlns="http://www.w3.org/2000/svg" width="62.088" height="54.548" viewBox="0 0 62.088 54.548">
  <path id="Path_6673" data-name="Path 6673" d="M490.669,73.63v.551c0,2.523-.029,5.048.016,7.57a8.336,8.336,0,0,1-1.8,5.328,25.146,25.146,0,0,1-2.939,3.14Q481.968,93.93,478,97.648c-.01.01-.02.022-.031.03a1.157,1.157,0,0,0-.458,1.048c.02,3.916-.015,7.832.027,11.747a8.15,8.15,0,0,1-1.785,5.2,21.187,21.187,0,0,1-2.662,2.805c-1.281,1.156-2.578,2.294-3.862,3.448-.366.329-.709.685-1.065,1.027-.069.066-.145.126-.266.232-.013-.14-.026-.219-.026-.3q-.005-6.309-.011-12.618a7.515,7.515,0,0,1,1.089-3.843,13.451,13.451,0,0,1,2.271-2.905c1.34-1.3,2.72-2.568,4.081-3.852.612-.577,1.211-1.168,1.828-1.739a.893.893,0,0,0,.3-.724c-.016-2.248.046-4.5-.038-6.743a9.019,9.019,0,0,1,2.246-6.228,30.277,30.277,0,0,1,2.771-2.821q3.959-3.729,7.906-7.469c.09-.084.185-.162.354-.309Z" transform="translate(-454.726 -73.63)" fill="#21275b"/>
  <path id="Path_6674" data-name="Path 6674" d="M627.756,268.462v.474c.006,7.89-.02,15.782.039,23.672a9.23,9.23,0,0,1-2.189,6.12,32.614,32.614,0,0,1-3.08,3.191q-2.1,1.957-4.193,3.924c-.041.038-.088.071-.2.163-.011-.208-.026-.354-.026-.5q0-3.372,0-6.745c0-5.7.03-11.4-.026-17.1a8.934,8.934,0,0,1,1.947-5.722,23.844,23.844,0,0,1,2.662-2.867c1.208-1.129,2.433-2.241,3.644-3.365.372-.345.726-.709,1.09-1.064.079-.077.166-.147.25-.22l.089.04Z" transform="translate(-591.866 -251.465)" fill="#21275b"/>
  <path id="Path_6675" data-name="Path 6675" d="M326.619,404.4c.012.156.027.266.028.375.019,4.088.015,8.178.065,12.265a8.458,8.458,0,0,1-1.67,5.155,23.214,23.214,0,0,1-3.1,3.4c-1.176,1.1-2.368,2.179-3.549,3.273-.351.325-.682.67-1.025,1-.078.076-.166.143-.327.279v-.551c-.017-4,0-8-.069-12a8.709,8.709,0,0,1,1.932-5.634,24.56,24.56,0,0,1,2.684-2.9q2.423-2.28,4.858-4.547A1.715,1.715,0,0,1,326.619,404.4Z" transform="translate(-316.973 -375.609)" fill="#21275b"/>
  <path id="Path_6676" data-name="Path 6676" d="M778.618,403.76v.635c0,4-.026,8.007.02,12.009a8.591,8.591,0,0,1-1.74,5.309A23.241,23.241,0,0,1,774,424.9c-1.129,1.065-2.285,2.1-3.423,3.156-.52.482-1.022.984-1.575,1.518a2.871,2.871,0,0,1-.039-.315q-.005-6.419-.009-12.836a7.183,7.183,0,0,1,.759-3.186,12.013,12.013,0,0,1,2.366-3.262c1.314-1.309,2.684-2.564,4.029-3.842q1.072-1.018,2.144-2.039c.091-.086.185-.17.361-.33Z" transform="translate(-729.618 -375.025)" fill="#21275b"/>
  <path id="Path_6677" data-name="Path 6677" d="M928.851,267.9v.543c0,2.03-.022,4.06.008,6.089a7.02,7.02,0,0,1-.893,3.451,14.1,14.1,0,0,1-2.538,3.3c-.838.842-1.715,1.646-2.579,2.462q-1.676,1.581-3.361,3.154c-.068.064-.146.118-.286.23v-.539c0-1.856.045-3.712-.008-5.566a8.45,8.45,0,0,1,1.851-5.443,25.4,25.4,0,0,1,3.015-3.247q2.3-2.158,4.6-4.309a1.845,1.845,0,0,1,.189-.121Z" transform="translate(-866.772 -250.99)" fill="#21275b"/>
  <path id="Path_6678" data-name="Path 6678" d="M317.406,284.374c0-1.442-.043-2.8.013-4.161a6.847,6.847,0,0,1,1.073-3.183,15.622,15.622,0,0,1,2.71-3.328c1.319-1.264,2.673-2.489,4.007-3.737.581-.544,1.149-1.1,1.733-1.664.03.042.073.073.074.105.005,1.246.037,2.494,0,3.739a7.3,7.3,0,0,1-1.183,3.594,15.357,15.357,0,0,1-2.527,3.089c-1.382,1.322-2.8,2.61-4.194,3.919-.487.456-.954.932-1.432,1.4-.07.068-.149.126-.275.232Z" transform="translate(-317.354 -251.356)" fill="#21275b"/>
</svg>
