<svg xmlns="http://www.w3.org/2000/svg" width="101.066" height="12.566" viewBox="0 0 101.066 12.566">
  <g id="Group_1324" data-name="Group 1324" transform="translate(4521.11 9914.112)">
    <g id="Group_1324-2" data-name="Group 1324" transform="translate(-4521.11 -9914.112)">
      <path id="Path_6679" data-name="Path 6679" d="M163.015,832.924v8.434c-.566.032-1.1.017-1.617.009l-.053-.057c-.011-.012-.029-.025-.03-.039a2.673,2.673,0,0,1-.026-.293q0-5.967.006-11.934a.939.939,0,0,1,.059-.2c.426,0,.866-.023,1.3.015.119.011.252.186.328.316.521.876,1.028,1.76,1.54,2.64q.83,1.428,1.662,2.854c.081.138.171.27.31.489,1.264-2.132,2.455-4.221,3.68-6.3h1.431c.115.358.143,11.877.03,12.482h-1.67c0-.941,0-1.871,0-2.8v-5.653l-.107-.033c-.4.585-.727,1.217-1.09,1.826-.379.635-.746,1.277-1.118,1.917-.364.623-.729,1.247-1.136,1.942a16.635,16.635,0,0,1-.884-1.439c-.281-.464-.55-.935-.825-1.4l-.85-1.444-.81-1.382-.131.051Z" transform="translate(-161.29 -828.839)" fill="#21275b"/>
      <path id="Path_6680" data-name="Path 6680" d="M515.576,837.146a25.4,25.4,0,0,0,2.866,4.173c-.314.069-.606,0-.883.04a1.914,1.914,0,0,1-2.032-1.071c-.524-.853-1.066-1.7-1.581-2.555a.571.571,0,0,0-.591-.328c-.292.021-.587,0-.943,0-.038.672-.014,1.307-.018,1.94s0,1.279,0,1.962h-1.621c-.111-.364-.132-11.9-.018-12.455a1.274,1.274,0,0,1,.223-.033c1.281,0,2.563-.024,3.843.023a4.631,4.631,0,0,1,1.481.314,3.616,3.616,0,0,1,2.278,3.089,4.844,4.844,0,0,1-.034,1.91,3.883,3.883,0,0,1-2.433,2.774c-.091.037-.185.065-.277.1-.075.03-.149.065-.257.112Zm-3.127-6.614a40.405,40.405,0,0,0,.036,5.195c.766,0,1.543.056,2.307-.013a2.166,2.166,0,0,0,2.1-1.944,4.532,4.532,0,0,0-.018-1.371,2.03,2.03,0,0,0-1.941-1.851c-.812-.079-1.636-.016-2.482-.016Z" transform="translate(-476.214 -828.819)" fill="#21275b"/>
      <path id="Path_6681" data-name="Path 6681" d="M654.956,841.736h-1.8L652.243,839h-4.587l-.911,2.737H644.94c1.367-4.176,2.721-8.306,4.082-12.463h1.854C652.233,833.4,653.6,837.543,654.956,841.736Zm-4.951-9.588-.114,0-1.654,5.055h3.427C651.1,835.492,650.553,833.82,650.005,832.148Z" transform="translate(-597.231 -829.225)" fill="#21275b"/>
      <path id="Path_6682" data-name="Path 6682" d="M342.025,829.18h1.851l4.094,12.5h-1.8c-.171-.512-.333-.992-.492-1.475-.083-.25-.154-.5-.242-.75-.212-.6-.081-.567-.776-.568h-3.988l-.921,2.766H337.94C339.307,837.479,340.665,833.336,342.025,829.18Zm2.633,7.943c-.19-.588-.37-1.145-.55-1.7-.187-.577-.366-1.157-.566-1.729a13.027,13.027,0,0,0-.617-1.72l-1.683,5.151h3.418Z" transform="translate(-320.515 -829.144)" fill="#21275b"/>
      <path id="Path_6683" data-name="Path 6683" d="M818.08,828.868h1.672v5.119l.115.041c.092-.14.189-.278.276-.422.876-1.448,1.759-2.892,2.618-4.35a.713.713,0,0,1,.737-.424c.523.031,1.05.008,1.558.008a.627.627,0,0,1,.038.07c0,.015.014.036.007.045-1.3,2.037-2.591,4.073-3.92,6.158a54.393,54.393,0,0,0,4.188,6.236c-.6,0-1.171.037-1.729-.018a1.2,1.2,0,0,1-.664-.383,6.527,6.527,0,0,1-.773-1.016c-.7-1.112-1.38-2.237-2.07-3.357a1.184,1.184,0,0,0-.362-.4c-.005.409-.013.819-.015,1.229,0,.444,0,.888,0,1.332v2.588h-1.675V828.868Z" transform="translate(-753.292 -828.829)" fill="#21275b"/>
      <path id="Path_6684" data-name="Path 6684" d="M966.351,839.7h5.195v1.623H964.72c-.1-.376-.13-11.758-.038-12.409.349-.1,6.13-.127,6.862-.032V830.5c-1.714.012-3.428,0-5.168.009v3.746c1.245.083,2.486,0,3.758.05v1.507c-1.228.049-2.469-.008-3.775.034-.023,1.279-.011,2.532-.008,3.859Z" transform="translate(-885.383 -828.823)" fill="#21275b"/>
      <path id="Path_6685" data-name="Path 6685" d="M1114.462,829.27c-1.719,3.595-3.408,7.127-5.139,10.749h4.813v1.662c-.389.1-6.922.116-7.485.007l5.119-10.734h-4.83V829.27h7.524Z" transform="translate(-1013.397 -829.225)" fill="#21275b"/>
    </g>
  </g>
</svg>
