<svg id="vuesax_linear_tag" data-name="vuesax/linear/tag" xmlns="http://www.w3.org/2000/svg" width="29.315" height="29.315" viewBox="0 0 29.315 29.315">
  <g id="tag" transform="translate(0)">
    <path id="Vector" d="M1.716,15.3l5.533,5.533a5.839,5.839,0,0,0,8.245,0l5.362-5.362a5.839,5.839,0,0,0,0-8.245L15.311,1.706a5.8,5.8,0,0,0-4.4-1.7L4.806.3A4.72,4.72,0,0,0,.3,4.784L.006,10.891A5.868,5.868,0,0,0,1.716,15.3Z" transform="translate(3.378 3.388)" fill="none" stroke="#21275b" stroke-linecap="round" stroke-linejoin="round" stroke-width="2"/>
    <path id="Vector-2" data-name="Vector" d="M6.107,3.054A3.054,3.054,0,1,1,3.054,0,3.054,3.054,0,0,1,6.107,3.054Z" transform="translate(8.55 8.55)" fill="none" stroke="#21275b" stroke-linecap="round" stroke-width="2"/>
    <path id="Vector-3" data-name="Vector" d="M0,0H29.315V29.315H0Z" fill="none" opacity="0"/>
  </g>
</svg>
