<svg xmlns="http://www.w3.org/2000/svg" xmlns:xlink="http://www.w3.org/1999/xlink" width="628.521" height="200.446" viewBox="0 0 628.521 200.446">
  <defs>
    <clipPath id="clip-path">
      <rect id="Rectangle_1369" data-name="Rectangle 1369" width="628.522" height="200.446" fill="none"/>
    </clipPath>
  </defs>
  <g id="Group_2841" data-name="Group 2841" transform="translate(-7775 -7138)">
    <g id="Group_2840" data-name="Group 2840" transform="translate(7775 7138)">
      <g id="Group_2839" data-name="Group 2839" clip-path="url(#clip-path)">
        <path id="Path_393" data-name="Path 393" d="M54.109,152.718V121.895C66.435,47.319,116.5,24.367,119.665,22.983c2.737-1.07,5.484-2.018,8.228-2.817,42.975-11.133,59.8,12.944,41.681,23.041,6.472,6.214,23.559,5.695,29.255-2.847,8.284-12.427-1.036-25.89-10.873-31.844A48.259,48.259,0,0,0,170.661,2.3l0,0c-.017,0-.034,0-.051-.006q-2.775-.449-5.641-.627C83.847-5.584,54.109,78.157,54.109,78.157V43.983C36.763,57.964,0,54.08,0,54.08c7.767,3.107,12.686,20.194,12.686,31.067v67.571c-.259,11.391-2.847,21.488-10.1,24.336H64.206c-6.732-2.848-9.321-12.945-10.1-24.336" fill="#313133"/>
        <path id="Path_394" data-name="Path 394" d="M492.9,172.3c-1.849-4.313-4.829-14.4-4.856-34.66q-.014-66.884-.007-133.767V0c-16.062,9.929-33.575,9.913-50.369,9.732,2.185,3.664,4.719,7.162,6.47,11.018a46.537,46.537,0,0,1,3.99,19.565c-.041,15.72,0,31.44-.016,47.16-.012,16.144.047,32.287-.045,48.43a78.336,78.336,0,0,0-.056,8.29c0,.343,0,.688-.007,1.032l.053,0c.615,12.073,3.948,32.765,18.834,43.648l.007,0c24.377,20.738,63.737,7.29,63.737,7.29-21.583-2.281-32.386-12.84-37.735-23.857" fill="#313133"/>
        <path id="Path_395" data-name="Path 395" d="M579.711,104.788q0,20.107,0,40.213A13.83,13.83,0,0,1,560.8,158.155c-8.878-3.237-13.661-11.166-12.476-20.529,1.707-13.474,8.97-23.443,19.738-31.109,3.474-2.474,7.287-4.474,11.651-7.121ZM620.32,158.9a69.66,69.66,0,0,1-.7-10.436c-.067-16.822.026-33.645-.048-50.468-.087-19.65-10.609-34.353-29.044-40.853-12.9-4.547-26.117-4.826-39.475-2.993-11.742,1.612-22.831,5.068-32.088,12.818-9.089,7.608-13.98,17.137-12.4,29.33a17.976,17.976,0,0,0,5.963,11.662s10.348,10.016,25.179,3.2c15.246-7.006,11.887-25.36,4.6-30.271-7.784-5.245-14.458-7.362-11.034-13.108,8.157-9.771,26.239-11.155,35.694-2.707,6.459,5.77,9.627,13.3,11.358,21.56,1.641,7.836,1.58,7.752-5.439,11.3-12.706,6.427-25.5,12.7-37.977,19.559-8.812,4.843-16.793,10.974-22.567,19.467-6.015,8.849-6.823,18.394-2.682,28.079,4.286,10.025,12.94,14.1,23.22,14.467,18.071.64,32.815-6.628,44.617-20.145.555-.635,1.073-1.306,1.8-2.2a9.273,9.273,0,0,1,.412,1.215c1.461,11.269,7.573,16.821,18.872,16.984,9.008.131,18.017.145,27.025.2.777.005,1.557-.1,2.91-.2-5.768-4.374-7.247-10.347-8.2-16.457" fill="#313133"/>
        <path id="Path_396" data-name="Path 396" d="M159.814,104.788q0,20.107,0,40.213A13.83,13.83,0,0,1,140.9,158.155c-8.878-3.237-13.661-11.166-12.476-20.529,1.707-13.474,8.97-23.443,19.738-31.109,3.474-2.474,7.287-4.474,11.651-7.121ZM200.423,158.9a69.531,69.531,0,0,1-.7-10.436c-.067-16.822.026-33.645-.048-50.468-.087-19.65-10.61-34.353-29.044-40.853-12.9-4.547-26.117-4.826-39.475-2.993-11.742,1.612-22.831,5.068-32.088,12.818-9.089,7.608-13.98,17.137-12.4,29.33a17.976,17.976,0,0,0,5.963,11.662s10.348,10.016,25.179,3.2c15.246-7.006,11.887-25.36,4.6-30.271-7.784-5.245-14.459-7.362-11.034-13.108,8.157-9.771,26.239-11.155,35.694-2.707,6.459,5.77,9.626,13.3,11.358,21.56,1.641,7.836,1.58,7.752-5.439,11.3-12.706,6.427-25.5,12.7-37.977,19.559-8.812,4.843-16.793,10.974-22.567,19.467-6.015,8.849-6.823,18.394-2.682,28.079,4.286,10.025,12.94,14.1,23.22,14.467,18.071.64,32.815-6.628,44.617-20.145.554-.635,1.073-1.306,1.8-2.2a9.272,9.272,0,0,1,.412,1.215c1.461,11.269,7.572,16.821,18.872,16.984,9.008.131,18.017.145,27.025.2.777.005,1.557-.1,2.91-.2-5.768-4.374-7.247-10.347-8.2-16.457" fill="#313133"/>
        <path id="Path_397" data-name="Path 397" d="M440.66,174.969H384.43c6.644-2.969,8.778-13.36,9.254-25.236V92.574c0-17.07-11.864-25.485-23.253-25.485-17.793,0-23.487,13.363-24.911,19.8a120.115,120.115,0,0,1,2.135,22.518v40.824c.238,11.383,2.847,21.774,9.253,24.743H300.441c6.881-2.969,9.016-13.856,9.252-25.733V92.574c0-30.185-36.3-32.164-46.026-11.877v71.015c.711,10.887,3.083,20.536,9.252,23.257H216.451c7.118-2.969,9.254-14.846,9.254-27.464V86.391c0-10.639-4.508-26.723-11.626-29.94,0,0,33.69,3.71,49.588-9.156V72.038c13.286-17.319,63.821-34.392,79.242,6.928,4.984-10.145,22.541-25.733,48.165-25.733,20.642,0,40.334,13.856,40.334,56.169v40.824c.474,11.383,2.847,21.774,9.252,24.743" fill="#313133"/>
      </g>
    </g>
  </g>
</svg>
